<?xml version="1.0" encoding="utf-8"?>
<!-- Generator: Adobe Illustrator 16.0.0, SVG Export Plug-In . SVG Version: 6.00 Build 0)  -->
<!DOCTYPE svg PUBLIC "-//W3C//DTD SVG 1.1//EN" "http://www.w3.org/Graphics/SVG/1.1/DTD/svg11.dtd">
<svg version="1.1" id="Capa_1" xmlns="http://www.w3.org/2000/svg" xmlns:xlink="http://www.w3.org/1999/xlink" x="0px" y="0px"
	 width="800px" height="800px" viewBox="0 0 800 800" enable-background="new 0 0 800 800" xml:space="preserve">
<g>
	<path fill="#FFFFFF" d="M400,0C179.086,0,0,179.085,0,400c0,220.912,179.086,400,400,400c220.913,0,400-179.088,400-400
		C800,179.085,620.913,0,400,0z M510.25,244.715h-58.12c-9.532,0-22.938,4.763-22.938,25.05v54.082h80.813l-9.447,91.811h-71.373
		v261.487h-108.14V415.656h-51.432V323.76h51.432v-59.468c0-42.524,20.2-109.115,109.103-109.115l80.103,0.337V244.715
		L510.25,244.715z"/>
</g>
</svg>
