<?xml version="1.0" encoding="utf-8"?>
<!-- Generator: Adobe Illustrator 16.0.0, SVG Export Plug-In . SVG Version: 6.00 Build 0)  -->
<!DOCTYPE svg PUBLIC "-//W3C//DTD SVG 1.1//EN" "http://www.w3.org/Graphics/SVG/1.1/DTD/svg11.dtd">
<svg version="1.1" id="Capa_1" xmlns="http://www.w3.org/2000/svg" xmlns:xlink="http://www.w3.org/1999/xlink" x="0px" y="0px"
	 width="800px" height="800px" viewBox="0 0 800 800" enable-background="new 0 0 800 800" xml:space="preserve">
<path fill="#FFFFFF" d="M395.562,193.959c-111.259,0-201.794,90.535-201.794,201.794c0,111.279,90.535,201.805,201.794,201.805
	c111.26,0,201.815-90.545,201.815-201.805C597.377,284.494,506.842,193.959,395.562,193.959z M395.562,512.282
	c-64.238,0-116.539-52.28-116.539-116.55c0-64.228,52.3-116.508,116.539-116.508c64.249,0,116.53,52.291,116.53,116.508
	C512.092,460.002,459.82,512.282,395.562,512.282z"/>
<path fill="#FFFFFF" d="M603.869,140.176c26.313,0,47.742,21.428,47.742,47.758c0,26.313-21.43,47.741-47.742,47.741
	c-26.346,0-47.773-21.429-47.773-47.741C556.096,161.604,577.523,140.176,603.869,140.176z"/>
<path fill="#FFFFFF" d="M598.4,3.97H204.378C93.778,3.97,3.779,93.948,3.779,204.568v394.023
	c0,110.62,89.999,200.599,200.599,200.599H598.4c110.621,0,200.6-89.979,200.6-200.599V204.568C799,93.948,709.021,3.97,598.4,3.97z
	 M712.477,598.592c0,62.899-51.176,114.075-114.076,114.075H204.378c-62.891,0-114.056-51.195-114.056-114.075V204.568
	c0-62.9,51.166-114.056,114.056-114.056H598.4c62.91,0,114.076,51.156,114.076,114.056V598.592z M598.4,3.97H204.378
	C93.778,3.97,3.779,93.948,3.779,204.568v394.023c0,110.62,89.999,200.599,200.599,200.599H598.4
	c110.621,0,200.6-89.979,200.6-200.599V204.568C799,93.948,709.021,3.97,598.4,3.97z M712.477,598.592
	c0,62.899-51.176,114.075-114.076,114.075H204.378c-62.891,0-114.056-51.195-114.056-114.075V204.568
	c0-62.9,51.166-114.056,114.056-114.056H598.4c62.91,0,114.076,51.156,114.076,114.056V598.592z"/>
</svg>
