<?xml version="1.0" encoding="utf-8"?>
<!-- Generator: Adobe Illustrator 16.0.0, SVG Export Plug-In . SVG Version: 6.00 Build 0)  -->
<!DOCTYPE svg PUBLIC "-//W3C//DTD SVG 1.1//EN" "http://www.w3.org/Graphics/SVG/1.1/DTD/svg11.dtd">
<svg version="1.1" id="Capa_1" xmlns="http://www.w3.org/2000/svg" xmlns:xlink="http://www.w3.org/1999/xlink" x="0px" y="0px"
	 width="850px" height="325px" viewBox="0 0 850 325" enable-background="new 0 0 850 325" xml:space="preserve">
<g>
	<path fill="#FEFEFE" d="M84.922,169.239c1.311-7.499,15.721-92.428,21.56-127.405c0.272-1.635,0.907-2.354,2.515-2.663
		c11.675-2.251,23.348-4.519,34.992-6.922c2.42-0.5,2.795,0.241,2.806,2.475c0.233,50.6,0.535,101.2,0.83,151.8
		c0.105,17.964,0.167,35.931,0.41,53.894c0.035,2.69-0.747,3.366-3.326,3.314c-7.225-0.145-14.461-0.187-21.682,0.077
		c-2.822,0.104-2.962-1.071-2.972-3.283c-0.17-39.652-0.406-79.306-0.619-118.957c-0.03-5.419-0.004-10.839-0.591-16.354
		c-0.797,4.31-1.617,8.612-2.386,12.924c-7.305,40.979-14.622,81.952-21.844,122.943c-0.374,2.119-1.049,2.813-3.199,2.74
		c-4.778-0.159-9.573-0.186-14.348,0.021c-2.133,0.095-2.637-0.737-3.007-2.603c-6.722-33.842-13.503-67.674-20.298-101.502
		c-1.625-8.091-3.34-16.165-5.462-24.184c0,9.118-0.023,18.237,0.004,27.354c0.096,32.636,0.177,65.271,0.383,97.909
		c0.015,2.622-0.789,3.174-3.223,3.13c-7.12-0.129-14.249-0.127-21.365,0.088c-2.515,0.076-2.914-0.769-2.912-3.05
		c0.062-59.428,0.057-118.854,0.011-178.279c-0.001-1.864,0.381-2.769,2.387-3.263c11.34-2.788,22.649-5.715,33.944-8.693
		c1.932-0.509,2.702-0.345,3.149,1.891c7.55,37.788,15.208,75.555,22.834,113.328c0.219,1.079,0.355,2.172,0.53,3.26
		C84.336,169.236,84.628,169.237,84.922,169.239z"/>
	<path fill="#FEFEFE" d="M308.202,97.218c0,32.417-0.015,64.613,0.005,96.812c0.01,15.521,0.029,31.043,0.188,46.563
		c0.024,2.328-0.69,2.772-2.843,2.731c-6.693-0.132-13.394-0.028-20.092-0.024c-4.444,0.005-4.447,0-4.466-4.604
		c-0.121-29.66-0.789-177.213-1.132-221.329c-0.023-2.958,0.646-4.022,3.668-4.199c8.271-0.485,16.532-1.223,24.784-1.998
		c1.962-0.184,2.741,0.27,3.213,2.297c8.864,38.277,17.829,76.531,26.747,114.796c2.628,11.271,5.181,22.562,7.765,33.841
		c0.139,0.605,0.094,1.307,0.931,1.547c0-8.15,0.021-16.289-0.004-24.429c-0.122-42.311-0.226-84.622-0.45-126.932
		c-0.014-2.716,0.605-3.613,3.398-3.652c7.22-0.101,14.438-0.5,21.653-0.864c1.88-0.095,2.663,0.161,2.665,2.457
		c0.067,76.756,0.224,153.512,0.436,230.268c0.005,2.239-0.538,2.843-2.788,2.802c-8.077-0.146-16.16-0.128-24.237-0.012
		c-1.937,0.025-2.679-0.488-3.158-2.437c-5.801-23.485-11.699-46.945-17.598-70.407c-6.028-23.986-12.084-47.969-18.138-71.949
		C308.652,98.114,308.44,97.765,308.202,97.218z"/>
	<path fill="#FEFEFE" d="M404.726,10.391c-0.005-2.552,0.521-3.369,3.245-3.4c13.181-0.148,26.355,0.085,39.534,0.129
		c18.954,0.064,31.605,9.488,39.388,26.177c4.344,9.311,5.867,19.284,5.858,29.463c-0.034,41.67-0.121,83.339-0.296,125.009
		c-0.059,13.594-2.423,26.635-10.396,38.119c-7.988,11.514-19.002,17.263-32.967,17.322c-13.713,0.063-27.427-0.044-41.139,0.089
		c-2.412,0.024-2.975-0.609-2.97-2.98C405.061,201.838,404.808,48.552,404.726,10.391z M432.991,125.082c-0.011,0-0.021,0-0.028,0
		c0,27.108,0.034,54.217-0.057,81.326c-0.008,2.493,0.606,3.284,3.144,3.133c3.921-0.231,7.865-0.009,11.797-0.091
		c7.602-0.16,12.771-4.1,15.137-11.366c1.229-3.787,1.586-7.683,1.591-11.632c0.031-35.72,0.072-71.439,0.093-107.159
		c0.003-6.696,0.278-13.417-0.193-20.083c-0.729-10.31-5.854-19.016-19.373-18.382c-2.859,0.135-5.771,0.232-8.602-0.113
		c-3.146-0.384-3.572,0.929-3.563,3.679C433.027,71.288,432.991,98.185,432.991,125.082z"/>
	<path fill="#FEFEFE" d="M607.538,192.484c-0.051,12.772-2.748,24.831-9.961,35.669c-16.739,25.15-55.885,25.215-71.436-2.947
		c-5.055-9.153-7.88-18.938-7.926-29.237c-0.206-46.345-0.33-92.692,0.524-139.035c0.232-12.69,3.967-24.518,12.504-34.351
		c10.775-12.409,27.531-16.323,43.971-9.981c17.261,6.659,26.328,20.317,30.91,37.511c2.269,8.516,2.146,17.249,2.117,25.975
		C608.183,94.052,607.621,171.65,607.538,192.484z M546.024,191.559c0,4.071,0.513,8.049,2.033,11.863
		c2.559,6.41,7.974,10.273,14.642,10.387c6.61,0.112,12.113-3.646,14.789-10.144c1.521-3.692,2.028-7.569,2.054-11.533
		c0.146-25.623,0.309-51.243,0.446-76.865c0.089-16.159,0.161-32.318,0.202-48.479c0.015-5.921-0.726-11.694-4.235-16.718
		c-4.164-5.957-10.102-8.053-17.009-6.907c-6.264,1.039-9.447,5.635-11.179,11.374c-1.179,3.909-1.293,7.948-1.293,11.993
		C546.477,86.942,546.025,170.295,546.024,191.559z"/>
	<path fill="#FEFEFE" d="M177.077,134.866c0-34.969,0.024-69.94-0.055-104.909c-0.005-2.403,0.37-3.388,3.062-3.825
		c24.324-3.946,48.772-6.942,73.227-9.91c2.302-0.278,3.319,0.003,3.265,2.789c-0.186,8.924-0.105,17.857,0.045,26.782
		c0.038,2.2-0.65,2.8-2.781,3c-15.438,1.449-30.87,2.988-46.264,4.883c-2.226,0.274-2.46,1.1-2.441,2.975
		c0.195,18.707,0.344,37.416,0.401,56.124c0.006,2.197,0.464,2.805,2.808,2.594c11.638-1.049,23.301-1.815,34.942-2.83
		c2.48-0.216,3.246,0.368,3.202,2.956c-0.146,8.714-0.129,17.435,0.058,26.146c0.057,2.573-0.538,3.343-3.23,3.452
		c-11.676,0.481-23.333,1.298-35.003,1.896c-1.98,0.101-2.662,0.602-2.635,2.768c0.245,19.875,0.401,39.753,0.428,59.629
		c0.003,2.45,1.079,2.417,2.854,2.378c14.979-0.33,29.963-0.535,44.94-0.944c2.655-0.072,3.67,0.317,3.604,3.33
		c-0.187,8.817-0.057,17.646,0.131,26.466c0.048,2.3-0.686,2.806-2.867,2.805c-24.447-0.009-48.896,0.033-73.344,0.221
		c-2.672,0.021-3.11-0.847-3.106-3.222"/>
	<path fill="#FEFEFE" d="M775.646,200.354c-4.03-0.205-8.07-0.299-12.086-0.661c-1.979-0.182-2.736,0.233-3.019,2.372
		c-1.697,12.947-3.635,25.866-5.318,38.816c-0.298,2.284-0.982,2.998-3.313,2.948c-7.542-0.158-15.091-0.116-22.633-0.036
		c-1.937,0.021-2.503-0.29-2.158-2.479c7.64-48.545,15.165-97.106,22.75-145.66c2.521-16.15,5.188-32.278,7.679-48.434
		c0.413-2.676,1.024-3.708,4.107-2.909c10.365,2.688,20.813,5.069,31.26,7.452c1.748,0.399,2.366,1.13,2.635,2.896
		c5.541,36.522,11.079,73.05,16.786,109.549c4,25.583,8.216,51.134,12.44,76.681c0.434,2.618-0.184,3.222-2.775,3.149
		c-7.541-0.207-15.089-0.19-22.634-0.12c-1.938,0.02-2.741-0.396-3.019-2.518c-1.607-12.426-3.463-24.814-5.078-37.238
		c-0.281-2.18-0.852-3.104-3.225-3.11c-4.136-0.012-8.27-0.424-12.404-0.668C775.646,200.374,775.646,200.363,775.646,200.354z
		 M776.489,91.804c-0.144,0.006-0.282,0.014-0.422,0.02c-0.608,4.191-1.224,8.385-1.821,12.579
		c-3.029,21.227-6.024,42.458-9.128,63.672c-0.331,2.258,0.269,2.959,2.49,3.094c5.507,0.335,11.034,0.666,16.491,1.447
		c2.976,0.427,3.037-0.579,2.719-2.953c-2.644-19.567-5.187-39.148-7.768-58.726C778.212,104.558,777.344,98.182,776.489,91.804z"/>
	<path fill="#FEFEFE" d="M631.363,243.507c-2.131,0.018-2.938-0.424-2.886-2.764c0.19-8.077,0.164-16.158,0.16-24.238
		c-0.001-1.534,0.436-2.918,0.905-4.329c16.677-49.942,33.817-99.728,51.502-149.323c0.981-2.749,0.691-3.502-2.32-3.867
		c-15.284-1.852-30.535-3.994-45.813-5.9c-2.41-0.3-3.369-0.909-3.293-3.605c0.254-8.711,0.215-17.433,0.167-26.15
		c-0.012-1.911,0.229-2.533,2.434-2.232c26.414,3.594,52.695,7.988,78.903,12.845c1.947,0.361,2.305,1.13,2.276,2.924
		c-0.118,7.44-0.093,14.884-0.08,22.326c0.002,1.294-0.199,2.508-0.649,3.726c-17.954,48.591-35.037,97.492-51.997,146.438
		c-0.87,2.513-0.373,2.975,2.145,3.029c15.51,0.353,31.016,0.9,46.524,1.248c2.258,0.051,3.07,0.438,2.998,2.946
		c-0.233,8.182-0.243,16.371-0.134,24.556c0.029,2.2-0.685,2.625-2.7,2.611c-13.075-0.081-26.154-0.041-39.229-0.041
		C670.274,243.627,644.333,243.42,631.363,243.507z"/>
	<path fill="#DE1119" d="M120.114,279.708c36.032,0,72.065,0.025,108.099-0.052c2.577-0.005,3.498,0.596,3.458,3.335
		c-0.151,10.628-0.188,21.26,0.013,31.885c0.063,3.236-0.848,4.131-4.09,4.122c-43.26-0.104-86.521-0.073-129.781-0.075
		c-28.38-0.001-56.761,0.003-85.14-0.031c-0.997,0-2.314,0.604-2.958-0.491c-0.647-1.104,0.487-1.938,1.036-2.779
		c2.853-4.387,5.619-8.836,8.67-13.08c1.632-2.271,1.775-3.998,0.086-6.348c-3.104-4.32-5.842-8.9-8.772-13.348
		c-0.569-0.861-1.679-1.659-1.073-2.725c0.526-0.926,1.766-0.378,2.672-0.378c35.926-0.024,71.852-0.021,107.779-0.021
		C120.114,279.718,120.114,279.713,120.114,279.708z"/>
	<path fill="#DE1119" d="M729.565,279.718c35.823,0,71.648-0.005,107.476,0.027c1.1,0,2.561-0.654,3.262,0.494
		c0.764,1.247-0.746,2.063-1.302,2.954c-2.983,4.793-6.041,9.547-9.263,14.184c-1.044,1.501-0.992,2.421,0.017,3.9
		c3.413,5.004,6.591,10.168,9.941,15.216c1.198,1.802,0.732,2.455-1.28,2.435c-0.637-0.006-1.275,0-1.913,0
		c-71.119-0.002-142.238-0.002-213.356-0.003c-4.693,0-4.693-0.001-4.693-4.636c0-10.417,0.087-20.837-0.063-31.253
		c-0.038-2.658,0.729-3.381,3.38-3.375C657.701,279.746,693.634,279.719,729.565,279.718z"/>
	<path fill="#FEFEFE" d="M259.895,295.201c0.002-5.619,0.066-11.239-0.034-16.857c-0.032-1.772,0.377-2.476,2.286-2.3
		c2.104,0.19,4.238,0.066,6.358,0.023c3.776-0.074,7.15,0.963,8.655,4.651c1.646,4.047,1.959,8.377-0.926,12.063
		c-1.196,1.525-1.108,1.919,0.167,3.343c3.43,3.834,2.692,8.554,1.419,12.929c-1.167,4.011-4.681,5.159-8.565,5.196
		c-2.333,0.021-4.68-0.151-6.995,0.053c-2.127,0.188-2.438-0.728-2.401-2.563C259.96,306.229,259.895,300.716,259.895,295.201z
		 M265.679,302.902c0,1.373,0.001,2.745-0.002,4.115c-0.001,0.738-0.068,1.397,0.911,1.731c3.332,1.134,6.146-0.822,6.192-4.393
		c0.014-1.058,0.049-2.115-0.015-3.167c-0.177-2.974-1.715-4.037-5.248-3.914c-3.063,0.104-1.467,2.382-1.81,3.729
		C265.557,301.603,265.683,302.269,265.679,302.902z M265.67,286.929c0,0.638,0.1,1.292-0.018,1.907
		c-0.506,2.69,0.836,3.259,3.165,2.973c3.104-0.38,4.44-3.203,3.485-7.508c-0.62-2.785-2.74-2.803-4.961-2.813
		c-2.757-0.017-1.357,2.042-1.636,3.22C265.541,285.409,265.677,286.185,265.67,286.929z"/>
	<path fill="#FEFEFE" d="M363.285,294.907c0.004-5.526,0.087-11.057-0.042-16.58c-0.042-1.867,0.521-2.417,2.335-2.283
		c2.114,0.157,4.25,0.057,6.374,0.04c3.753-0.028,7.136,0.903,8.628,4.693c1.563,3.978,1.935,8.199-0.827,11.814
		c-1.24,1.623-1.171,2.108,0.153,3.651c3.331,3.886,2.71,8.641,1.267,12.998c-1.29,3.893-4.81,5.08-8.748,5.007
		c-2.338-0.044-4.683-0.092-7.014,0.04c-1.69,0.096-2.189-0.502-2.164-2.166C363.333,306.387,363.28,300.646,363.285,294.907z
		 M369.116,302.915c0,1.273-0.009,2.547,0.002,3.819c0.007,0.717-0.168,1.473,0.701,1.924c2.552,1.323,6.222-0.629,6.396-3.487
		c0.084-1.371,0.073-2.767-0.064-4.132c-0.303-2.938-1.705-3.82-5.125-3.747c-3.12,0.067-1.537,2.363-1.891,3.721
		C368.98,301.609,369.11,302.279,369.116,302.915z M375.831,286.541c-0.022-0.422-0.044-0.842-0.063-1.263
		c-0.14-3-1.914-3.839-4.656-3.827c-3.392,0.015-1.625,2.479-1.942,3.874c-0.25,1.104-0.136,2.315-0.026,3.468
		c0.095,0.974-0.657,2.41,0.572,2.831c1.468,0.5,3.188,0.485,4.565-0.479C375.863,290.037,375.691,288.21,375.831,286.541z"/>
	<path fill="#FEFEFE" d="M430.425,295.127c0-5.527,0.084-11.056-0.045-16.58c-0.047-1.958,0.483-2.648,2.486-2.508
		c2.539,0.182,5.105-0.047,7.646,0.112c4.662,0.29,7.785,3.266,7.959,7.928c0.166,4.473,1.115,9.267-3.239,12.659
		c-0.84,0.65-0.309,1.531-0.07,2.348c1.271,4.385,2.477,8.789,3.781,13.164c0.444,1.495,0.252,1.927-1.498,2.066
		c-3.021,0.24-4.604-0.57-5.127-3.797c-0.56-3.438-1.722-6.779-2.572-10.178c-0.282-1.129-0.637-1.949-2.063-1.891
		c-1.753,0.069-1.341,1.298-1.349,2.278c-0.027,3.507-0.158,7.021,0.04,10.518c0.13,2.326-0.431,3.167-2.938,3.107
		c-2.272-0.059-3.176-0.43-3.069-2.973c0.221-5.411,0.065-10.839,0.065-16.259C430.434,295.127,430.429,295.127,430.425,295.127z
		 M436.328,287.181c0,0.85-0.149,1.731,0.035,2.536c0.283,1.229-1.271,3.411,1.764,3.336c2.48-0.063,4.503-0.443,4.576-3.491
		c0.041-1.692,0.177-3.412-0.04-5.079c-0.362-2.759-2.426-3.021-4.743-3.017c-2.854,0.006-1.225,2.069-1.546,3.184
		C436.146,285.432,436.331,286.332,436.328,287.181z"/>
	<path fill="#FEFEFE" d="M498.358,294.909c0-5.528,0.112-11.063-0.061-16.583c-0.067-2.208,0.849-2.454,2.622-2.271
		c1.558,0.161,3.438-0.686,3.231,2.304c-0.263,3.81,0.021,7.65-0.089,11.478c-0.051,1.747,0.375,2.437,2.273,2.373
		c5.748-0.191,4.587,0.334,4.674-4.493c0.062-3.294,0.133-6.598-0.028-9.884c-0.107-2.16,1.229-1.939,2.445-1.717
		c1.252,0.229,3.407-1.265,3.393,1.761c-0.061,11.481-0.076,22.964,0.021,34.446c0.022,2.625-1.689,1.867-3.007,1.923
		c-1.417,0.062-2.992,0.469-2.877-2.041c0.182-4.032-0.049-8.081,0.092-12.117c0.068-1.958-0.521-2.551-2.502-2.532
		c-4.469,0.042-4.464-0.068-4.453,4.277c0.009,3.297-0.188,6.604,0.059,9.885c0.194,2.62-1.161,2.572-3.053,2.59
		c-1.86,0.021-2.894-0.105-2.81-2.49C498.496,306.183,498.359,300.544,498.358,294.909z"/>
	<path fill="#FEFEFE" d="M328.649,295.299c0.003-5.516,0.075-11.033-0.036-16.548c-0.041-1.954,0.308-2.915,2.554-2.721
		c2.739,0.237,5.525-0.034,8.258,0.241c4.086,0.413,6.935,3.182,7.119,7.261c0.214,4.665,1.301,9.675-3.171,13.294
		c-0.872,0.705-0.233,1.556-0.012,2.341c1.147,4.078,2.334,8.146,3.416,12.242c0.241,0.92,1.601,2.626-0.271,2.696
		c-1.707,0.063-4.424,1.764-5.32-1.524c-1.087-3.987-2.195-7.969-3.188-11.98c-0.344-1.392-0.727-2.346-2.453-2.104
		c-1.798,0.249-1.063,1.587-1.086,2.448c-0.09,3.604-0.248,7.229,0.027,10.813c0.21,2.731-1.271,2.516-3.078,2.541
		c-1.795,0.027-2.918-0.027-2.826-2.454C328.788,306.337,328.645,300.815,328.649,295.299z M334.418,287.228
		c0,1.383-0.01,2.764,0.004,4.146c0.006,0.721-0.103,1.396,0.951,1.682c3.099,0.84,5.47-0.88,5.541-4.16
		c0.029-1.381,0.104-2.771-0.012-4.144c-0.26-3.03-2.432-3.278-4.847-3.281c-2.792-0.001-1.316,2.062-1.6,3.22
		C334.262,285.488,334.419,286.378,334.418,287.228z"/>
	<path fill="#FEFEFE" d="M552.083,295.394c0,3.505,0.091,7.012-0.022,10.512c-0.176,5.502-3.7,8.87-9.138,8.898
		c-5.524,0.032-9.251-3.47-9.337-9.055c-0.106-7.007-0.106-14.016-0.002-21.021c0.09-5.896,3.66-9.238,9.489-9.159
		c5.585,0.074,8.896,3.479,8.983,9.313c0.056,3.503,0.012,7.007,0.012,10.512C552.073,295.394,552.078,295.394,552.083,295.394z
		 M546.366,295.136c0-3.506,0.064-7.013-0.025-10.515c-0.059-2.206-1.229-3.695-3.552-3.646c-2.302,0.046-3.418,1.52-3.427,3.759
		c-0.027,6.903-0.025,13.81-0.002,20.713c0.006,2.222,0.987,3.711,3.386,3.75c2.556,0.042,3.594-1.487,3.606-3.861
		C546.378,301.934,546.361,298.535,546.366,295.136z"/>
	<path fill="#FEFEFE" d="M310.096,314.21c-2.419,0.68-3.189-0.6-3.214-2.81c-0.006-0.734-0.21-1.468-0.329-2.197
		c-0.495-3.039-3.109-4.52-5.961-3.401c-0.7,0.276-0.922,0.786-1,1.461c-0.144,1.267-0.289,2.53-0.479,3.787
		c-0.45,2.957-2.36,4.068-5.243,3.226c-1.526-0.447-0.874-1.567-0.751-2.323c1.848-11.29,3.794-22.565,5.636-33.856
		c0.254-1.562,0.797-2.053,2.435-2.056c5.668-0.01,5.664-0.09,6.615,5.644c1.628,9.826,3.196,19.663,4.938,29.471
		C313.167,313.543,313.018,314.887,310.096,314.21z M303.127,285.842c-0.139,0.009-0.278,0.021-0.416,0.027
		c-0.604,4.188-1.107,8.396-1.854,12.563c-0.37,2.065,0.871,1.771,2.007,1.719c1.016-0.048,2.548,0.567,2.206-1.56
		C304.384,294.348,303.77,290.093,303.127,285.842z"/>
	<path fill="#FEFEFE" d="M568.884,295.24c-0.001-5.626,0.065-11.254-0.041-16.878c-0.032-1.771,0.396-2.464,2.272-2.325
		c2.322,0.171,4.669,0.031,7.004,0.067c1.384,0.021,2.751,0.182,4.042,0.752c4.354,1.925,6.103,7.428,4.724,14.927
		c-0.774,4.224-3.967,7.04-8.625,6.85c-3.08-0.125-3.758,0.878-3.524,3.727c0.266,3.27-0.056,6.58,0.063,9.863
		c0.115,3.142-2.161,1.777-3.553,2.022c-1.615,0.285-2.479-0.083-2.416-2.129C568.993,306.495,568.886,300.865,568.884,295.24z
		 M574.786,287.301c-0.019,0-0.033,0-0.051,0c0,1.379-0.045,2.759,0.02,4.136c0.031,0.666-0.208,1.437,0.793,1.834
		c2.451,0.977,5.457-0.735,5.642-3.396c0.114-1.688,0.13-3.401-0.014-5.088c-0.25-2.988-2.379-3.363-4.824-3.297
		c-2.736,0.071-1.266,2.102-1.528,3.272C574.639,285.569,574.786,286.452,574.786,287.301z"/>
	<path fill="#FEFEFE" d="M474.169,314.769c-6.313-0.024-9.975-3.555-10.352-8.61c-0.146-1.951,0.604-2.506,2.304-2.328
		c1.273,0.134,3.351-1.56,3.36,1.56c0.005,1.661,0.649,3.202,2.5,3.652c1.494,0.364,2.982,0.271,4.043-1.116
		c1.181-1.546,0.93-3.197,0.176-4.787c-1.4-2.957-3.986-4.916-6.221-7.169c-3.944-3.974-7.147-8.216-5.431-14.352
		c1.27-4.521,5.274-6.805,10.502-5.901c3.934,0.68,7.037,4.798,6.687,8.88c-0.234,2.719-2.5,1.111-3.74,1.693
		c-1.225,0.572-1.885,0.021-1.923-1.483c-0.064-2.438-1.128-4.216-3.932-3.738c-2.017,0.342-2.895,3.069-1.896,5.604
		c0.876,2.234,2.641,3.824,4.251,5.512c2.269,2.376,4.743,4.604,6.396,7.475c2.046,3.551,2.294,7.236,0.187,10.895
		C479.299,313.637,476.451,314.748,474.169,314.769z"/>
	<path fill="#FEFEFE" d="M406.601,276.065c1.809,0,3.626,0.127,5.419-0.032c1.988-0.178,2.868,0.295,2.75,2.539
		c-0.104,1.952-0.216,3.372-2.709,2.933c-0.617-0.106-1.28-0.084-1.907-0.002c-2.033,0.268-5.279-1.034-5.867,0.683
		c-0.947,2.763-0.327,6.076-0.272,9.155c0.016,0.833,0.852,0.799,1.479,0.811c1.274,0.02,2.584,0.189,3.82-0.024
		c2.834-0.495,3.312,0.789,3.224,3.305c-0.067,1.934-0.73,2.197-2.42,2.199c-6.146,0.007-6.146,0.068-6.146,6.335
		c0,4.795,0,4.795,4.877,4.797c0.852,0.001,1.7-0.004,2.55-0.007c3.149-0.004,4.153,1.424,3.306,4.486
		c-0.28,1.01-0.903,1.015-1.663,1.017c-4.358,0-8.717-0.049-13.075,0.033c-1.479,0.027-1.748-0.597-1.743-1.904
		c0.041-11.479,0.057-22.962-0.003-34.441c-0.009-1.581,0.472-2.005,2.013-1.896c2.114,0.152,4.25,0.038,6.375,0.038
		C406.601,276.08,406.601,276.073,406.601,276.065z"/>
</g>
</svg>
