<?xml version="1.0" encoding="utf-8"?>
<!-- Generator: Adobe Illustrator 16.0.0, SVG Export Plug-In . SVG Version: 6.00 Build 0)  -->
<!DOCTYPE svg PUBLIC "-//W3C//DTD SVG 1.1//EN" "http://www.w3.org/Graphics/SVG/1.1/DTD/svg11.dtd">
<svg version="1.1" id="Capa_1" xmlns="http://www.w3.org/2000/svg" xmlns:xlink="http://www.w3.org/1999/xlink" x="0px" y="0px"
	 width="480px" height="480px" viewBox="0 0 480 480" enable-background="new 0 0 480 480" xml:space="preserve">
<path fill-rule="evenodd" clip-rule="evenodd" d="M-34.766,499.798"/>
<g>
	<path fill-rule="evenodd" clip-rule="evenodd" fill="#DE442A" d="M197.118,126.847c-2.109,11.105-11.456,17.206-22.416,14.146
		c-15.199-4.219-22.644-15.572-26.304-30.006c-0.723-2.854-0.91-5.811-1.344-8.727c0.331-15.613,11.58-23.409,26.222-18.033
		C188.785,89.935,200.242,110.427,197.118,126.847z"/>
	<path fill-rule="evenodd" clip-rule="evenodd" fill="#DE442A" d="M247.018,172.548c0.021,3.785-3.496,7.279-7.361,7.342
		c-3.868,0.062-7.342-3.247-7.486-7.176c-0.146-3.722,3.288-7.465,7.072-7.672C243.13,164.815,247.018,168.557,247.018,172.548z"/>
	<path fill-rule="evenodd" clip-rule="evenodd" fill="#DE442A" d="M265.049,12.366C201.171,0.02,139.175,37.12,122.363,97.585
		c-7.548,27.09-4.384,54.056,1.344,80.732c22.065,102.901,67.932,196.393,115.867,291.684c3.08-5.481,5.147-8.954,7.009-12.533
		c23.802-45.806,45.93-92.395,65.181-140.269c22.501-55.854,43.035-112.247,49.591-172.817
		C368.157,81.849,326.695,24.278,265.049,12.366z M234.093,210.868c-20.389,35.61-40.903,71.157-61.396,106.683
		c-0.062,0.126-0.289,0.166-0.848,0.478c-4.115-5.419-6.121-11.665-6.886-18.344c-1.51-13.008,1.158-25.455,7.403-36.644
		c15.281-27.338,31.246-54.304,47.334-82.139c5.169,9.141,9.905,17.371,14.414,25.747
		C234.714,207.744,234.714,209.792,234.093,210.868z M313.874,305.681c-1.033,4.281-3.287,8.271-5.418,13.526
		c-1.531-2.339-2.482-3.64-3.268-5.047c-23.845-41.401-47.665-82.82-71.509-124.242c-1.385-2.398-2.916-4.714-4.384-7.072
		c-3.598-5.831-5.087-11.973-3.185-18.818c2.854-10.235-0.434-18.342-9.512-24.008c-4.178-2.605-7.672-1.075-10.587,2.212
		c-17.723,20.101-43.241,19.047-59.95-2.461c-7.216-9.306-12.098-19.666-14.434-31.225v-9.389
		c3.226-15.634,10.278-28.063,27.09-32.301h10.422c20.658,3.702,32.115,18.321,41.793,35.113c2.605,4.487,5.19,9.099,8.562,12.966
		c14.744,16.896,23.698,37.347,35.01,56.331c17.535,29.448,34.721,59.123,51.656,88.92
		C314.163,274.27,317.824,289.491,313.874,305.681z M348.368,109.58c-2.607,10.877-7.157,20.844-13.959,29.737
		c-11.084,14.517-28.869,21.01-43.945,16.026c-6.224-2.048-11.414-5.542-15.135-11.188c-4.594-6.907-9.412-7.238-15.118-1.137
		c-2.688,2.874-5.067,6.038-7.838,9.347c-2.854-4.757-5.936-9.906-9.077-15.18c3.039-3.887,6.184-7.609,8.974-11.56
		c6.784-9.615,13.524-19.231,20.018-29.033c8.271-12.491,17.329-23.906,32.715-28.021c1.965-0.517,3.907-1.138,5.853-1.716h10.423
		c11.602,3.392,20.185,10.132,24.07,21.94c1.119,3.412,2.027,6.907,3.021,10.361V109.58z M305.809,84.579
		c-13.317,5.232-23.119,20.659-23.202,36.457c-0.082,17.309,13.091,25.808,28.454,17.868c14.416-7.445,20.991-20.349,21.487-36.085
		C333.085,86.295,321.194,78.499,305.809,84.579z"/>
</g>
</svg>
